<?xml version="1.0" standalone="no"?>
<svg viewBox="0 0 200 200" xmlns="http://www.w3.org/2000/svg">
  <path fill="#F1C21B" d="M17.2,-23C30.6,-22,55.5,-34.2,60.8,-32.6C66.2,-30.9,52.1,-15.5,51.7,-0.2C51.3,15,64.6,30,61.2,35C57.7,40,37.5,35,24.5,28.1C11.5,21.2,5.8,12.3,-3,17.5C-11.7,22.6,-23.4,41.6,-24.4,41.7C-25.5,41.7,-15.9,22.7,-24.2,12.6C-32.5,2.4,-58.6,1.2,-71.6,-7.5C-84.5,-16.2,-84.3,-32.3,-76.6,-43.5C-69,-54.8,-53.9,-61,-39.9,-61.6C-25.9,-62.2,-12.9,-57.2,-5.5,-47.6C1.9,-38.1,3.8,-24,17.2,-23Z" transform="translate(100 100)" />
</svg>
